<?xml version="1.0" encoding="utf-8"?>
<!-- Generator: Adobe Illustrator 17.0.0, SVG Export Plug-In . SVG Version: 6.00 Build 0)  -->
<!DOCTYPE svg PUBLIC "-//W3C//DTD SVG 1.1//EN" "http://www.w3.org/Graphics/SVG/1.1/DTD/svg11.dtd">
<svg version="1.1" id="Capa_1" xmlns="http://www.w3.org/2000/svg" xmlns:xlink="http://www.w3.org/1999/xlink" x="0px" y="0px"
	 width="126px" height="119px" viewBox="0 0 126 119" enable-background="new 0 0 126 119" xml:space="preserve">
<g>
	<g>
		<g>
			<path fill="#9ACFE1" d="M8.721,42.078c0,0.006,28.24,0.767,41.242,9.123c1.065,0.684,2.39,0.184,3.035-0.804
				c11.929-18.26,25.775-32.966,48.15-36.687c2.845-0.473,1.627-4.79-1.198-4.32C76.472,13.296,61.62,28.98,49.105,48.137
				c1.022-0.268,2.1-0.536,3.122-0.804c-13.668-8.784-28.584-9.729-43.505-9.735C7.063,37.597,7.063,42.077,8.721,42.078
				C8.721,42.078,7.063,42.078,8.721,42.078z"/>
		</g>
		<g>
			<path fill="#9ACFE1" d="M21.985,96.074c0,0.006,27.961,0.767,40.963,9.123c1.065,0.684,2.251,0.184,2.896-0.804
				c11.929-18.26,25.705-32.966,48.08-36.687c2.845-0.473,1.592-4.79-1.233-4.32c-23.478,3.905-38.348,19.589-50.863,38.746
				c1.022-0.268,2.37-0.536,3.392-0.804c-13.668-8.784-26.656-9.729-43.235-9.735C18.669,91.593,18.669,96.073,21.985,96.074
				C21.985,96.074,18.669,96.074,21.985,96.074z"/>
		</g>
	</g>
</g>
</svg>
